# Blender 3.1.0
# www.blender.org
o Cube.001
v -0.630920 -0.226328 0.592326
v -0.537873 -0.057997 1.154378
v -1.052088 -0.064600 0.954513
v -1.155731 -0.217847 0.459469
v -0.677921 1.329703 0.698183
v -1.176430 1.281231 0.646380
v -1.019775 1.174950 1.105961
v -0.610285 1.147948 1.327881
v 1.115930 1.067893 0.980967
v 0.808457 1.346412 0.902078
v 0.444005 1.032712 1.513821
v 0.936321 0.677546 1.426494
v -0.944509 0.743625 1.392342
v -1.281588 0.883991 1.218077
v -1.719440 0.916506 -0.699776
v -1.356023 1.245036 -0.716849
v -0.681862 1.180458 -1.481573
v -0.974527 0.926074 -1.431442
v -0.751048 0.149059 -1.123006
v -0.321458 -0.060305 -0.702046
v -0.692441 -0.114299 -0.835835
v -1.063276 0.074521 -1.015607
v -0.359688 -0.219676 -0.596748
v -0.476225 -0.274043 -0.037390
v -1.094633 -0.254018 -0.118459
v -0.862364 -0.219203 -0.537108
v 0.548058 -0.284113 -0.657622
v 0.480423 -0.312115 -0.111060
v -0.015789 -0.312706 -0.060242
v 0.172793 -0.188473 -0.532460
v 0.383454 -0.298149 0.533170
v 0.243586 -0.141476 1.191072
v -0.154563 -0.114500 1.228987
v -0.106274 -0.274351 0.595963
v 0.342781 1.370886 0.863692
v -0.198010 1.360380 0.630818
v -0.344848 1.152380 1.730000
v -0.065279 1.102928 1.796044
v 0.801564 1.333314 -0.716665
v 0.062998 1.276304 -0.994314
v 0.046107 1.351565 -0.253730
v 0.611501 1.352344 -0.290780
v -0.544178 1.290048 -0.889409
v -1.177093 1.303243 0.009798
v -0.603343 1.343584 -0.011276
v 1.347667 0.189763 0.746821
v 1.267461 0.630730 1.008356
v 1.155268 0.478039 1.381585
v 1.014587 0.183491 1.312948
v 1.323792 0.127379 -0.856060
v 1.267107 0.600208 -0.689727
v 1.175182 0.692469 0.169032
v 1.268899 0.241091 -0.063884
v 1.423543 0.897206 -0.707035
v 1.231954 1.216866 -0.594471
v 0.975431 1.246559 0.047895
v 1.050912 1.068503 0.197512
v -0.706694 0.190636 1.346937
v -1.043570 0.402928 1.289593
v -1.648060 0.452009 0.853586
v -1.571341 0.110279 0.770709
v 0.494274 0.153436 1.399456
v 0.667029 0.439932 1.448684
v 0.260077 0.452640 1.365451
v -0.135120 0.156677 1.505020
v 0.524189 0.691410 1.410453
v -0.066870 0.652060 1.602193
v -1.346437 -0.078697 -0.808084
v -1.759897 0.319614 -0.724614
v -1.185727 0.481559 -1.133555
v -1.550380 0.033513 0.487642
v -1.646483 0.462612 0.459024
v -1.648881 0.429819 -0.064031
v -1.548443 -0.153801 -0.255587
v -1.434319 1.017100 0.746778
v -1.483055 1.068517 0.045330
v -0.263198 0.916780 -1.716774
v -0.775458 0.497559 -1.402503
v 0.802037 0.850318 -1.528586
v 0.556317 0.449266 -1.496503
v -0.199824 0.336820 -1.536424
v 0.153226 0.839249 -1.832230
v 0.512712 0.114694 -1.198383
v 0.468949 -0.142859 -1.026806
v 0.067265 -0.072713 -0.783522
v -0.180515 0.060946 -1.233899
v 0.896930 -0.116701 -1.078061
v 1.042022 -0.190494 -0.637866
v 1.045407 -0.157597 -0.147996
v 1.008866 -0.126459 0.470257
v 0.736314 -0.076033 1.066762
v 1.303753 1.083753 -1.023542
v 0.770454 1.122192 -1.299703
v 0.105258 1.126820 -1.585067
v -0.174992 1.147173 -1.801163
v 1.081272 0.175115 -1.287556
v 1.200361 0.538245 -1.221685
v 1.385825 0.807576 -1.181814
vn -0.0796 -0.9779 0.1933
vn -0.3110 -0.7885 0.5306
vn -0.3029 -0.9404 0.1545
vn -0.0711 0.9848 0.1584
vn -0.3408 0.7859 0.5159
vn -0.3430 0.7129 0.6117
vn 0.7746 0.5582 0.2972
vn 0.4023 0.4399 0.8029
vn 0.3901 0.2558 0.8846
vn -0.3367 0.1069 0.9355
vn -0.6013 0.3344 0.7257
vn -0.4539 0.8611 -0.2292
vn -0.5717 0.1442 -0.8077
vn -0.8850 0.3678 -0.2854
vn -0.1928 -0.6945 -0.6932
vn 0.0540 -0.8200 -0.5698
vn -0.2159 -0.5940 -0.7750
vn -0.0570 -0.9982 -0.0203
vn -0.0819 -0.9631 -0.2566
vn 0.0461 -0.8960 -0.4416
vn 0.0987 -0.9944 -0.0367
vn -0.1111 -0.9578 -0.2650
vn -0.0455 -0.9842 -0.1712
vn 0.1037 -0.8561 0.5063
vn -0.0700 -0.9853 0.1560
vn 0.1192 -0.9830 0.1396
vn 0.0425 0.9844 0.1706
vn -0.5304 0.3813 0.7572
vn 0.1152 0.3408 0.9330
vn 0.1551 0.9758 -0.1540
vn -0.0169 0.9985 -0.0511
vn 0.1119 0.9937 0.0050
vn -0.0517 0.9983 -0.0276
vn -0.0450 0.9918 -0.1196
vn 0.9480 0.1832 0.2604
vn 0.4953 -0.5645 0.6603
vn 0.9208 -0.3592 0.1522
vn 0.9820 -0.1864 0.0315
vn 0.9813 -0.1899 0.0309
vn 0.9181 -0.3523 -0.1816
vn 0.6266 0.7776 0.0523
vn 0.8902 0.4374 0.1271
vn 0.9953 0.0411 0.0874
vn -0.4257 -0.2985 0.8542
vn -0.7569 -0.5304 0.3819
vn -0.3050 -0.4568 0.8357
vn 0.1146 -0.4030 0.9080
vn 0.0690 -0.1375 0.9881
vn -0.0660 -0.1664 0.9838
vn -0.0263 -0.5068 0.8617
vn 0.0609 -0.1822 0.9814
vn -0.3638 -0.7419 -0.5633
vn -0.5325 -0.2732 -0.8012
vn -0.7982 -0.5954 0.0912
vn -0.9937 -0.0037 0.1122
vn -0.6565 -0.7543 -0.0043
vn -0.4113 0.8941 0.1772
vn -0.8157 0.5698 0.0997
vn -0.7978 0.5545 0.2365
vn -0.4000 -0.4217 -0.8137
vn -0.2571 -0.1272 -0.9580
vn 0.2356 -0.4800 -0.8450
vn 0.0997 0.0862 -0.9913
vn 0.4465 0.1931 -0.8737
vn -0.0526 -0.6677 -0.7426
vn -0.1140 -0.9049 -0.4101
vn -0.0712 -0.8659 -0.4951
vn -0.1665 -0.9860 -0.0085
vn -0.0293 -0.9964 -0.0792
vn -0.1957 -0.8383 0.5088
vn -0.0556 0.9950 0.0828
vn -0.3327 0.9429 0.0140
vn 0.7375 -0.0424 0.6741
vn 0.9736 0.2216 0.0545
vn 0.3573 0.9043 0.2334
vn -0.9141 -0.0170 0.4052
vn -0.8943 -0.2134 -0.3932
vn -0.1291 -0.5753 -0.8077
vn 0.0138 -0.7619 -0.6475
vn -0.2667 -0.7407 -0.6167
vn 0.2341 -0.7933 -0.5620
vn 0.6102 -0.7907 0.0491
vn 0.5111 -0.8572 -0.0625
vn 0.5176 -0.8492 0.1045
vn 0.3116 -0.8578 0.4087
vn 0.5473 0.8266 0.1313
vn 0.6355 0.6781 -0.3692
vn 0.2690 0.8056 -0.5279
vn 0.0321 0.9839 -0.1760
vn 0.1259 0.3868 -0.9136
vn 0.2369 0.8003 -0.5509
vn -0.3230 0.7286 -0.6040
vn 0.7469 -0.2195 -0.6276
vn 0.4762 -0.4125 -0.7765
vn 0.8595 -0.0056 -0.5111
vn -0.1175 -0.8578 0.5004
vn -0.0014 -0.0780 0.9970
vn -0.9983 0.0552 0.0163
vt 0.137636 0.563411
vt 0.058285 0.569867
vt 0.082613 0.506661
vt 0.152906 0.498683
vt 0.155028 0.344089
vt 0.206316 0.378186
vt 0.844101 0.700647
vt 0.155630 0.402329
vt 0.905653 0.682602
vt 0.099783 0.387655
vt 0.944083 0.694636
vt 0.896175 0.282885
vt 0.617335 0.678426
vt 0.000000 0.241327
vt 0.854473 0.349296
vt 0.672331 0.661064
vt 0.794976 0.248970
vt 0.870663 0.174892
vt 0.949240 0.587705
vt 0.752056 0.707183
vt 0.916733 0.604517
vt 0.336809 0.082005
vt 0.672331 0.596657
vt 0.369246 0.000842
vt 0.674914 0.687648
vt 0.335575 0.267841
vt 0.336809 0.140426
vt 0.489191 0.000000
vt 0.460672 0.063535
vt 0.384519 0.726331
vt 0.485748 0.254952
vt 0.512673 0.310590
vt 0.336920 0.785916
vt 0.481603 0.323059
vt 0.447322 0.276247
vt 0.506205 0.350977
vt 0.276846 0.583529
vt 0.215363 0.578539
vt 0.223692 0.502410
vt 0.448079 0.354288
vt 0.270084 0.523882
vt 0.609960 0.361119
vt 0.288525 0.695621
vt 0.226456 0.694739
vt 0.220811 0.635843
vt 0.266533 0.646047
vt 0.559475 0.342029
vt 0.149628 0.688747
vt 0.060049 0.668982
vt 0.053708 0.620010
vt 0.140662 0.629249
vt 0.808347 0.361119
vt 0.046020 0.277128
vt 0.115533 0.299946
vt 0.042023 0.402498
vt 0.693981 0.268226
vt 0.999879 0.706758
vt 0.011393 0.383384
vt 0.720806 0.251159
vt 0.133867 0.094672
vt 0.226136 0.127633
vt 0.165692 0.199396
vt 0.116225 0.149680
vt 0.273683 0.187557
vt 0.258354 0.321530
vt 0.766741 0.707183
vt 0.206193 0.274302
vt 0.422948 0.654063
vt 0.934356 0.187628
vt 0.520455 0.684734
vt 0.477461 0.726331
vt 0.907061 0.133559
vt 0.404599 0.713241
vt 0.019832 0.742597
vt 0.913859 0.076969
vt 0.422729 0.459207
vt 0.529375 0.479105
vt 0.539575 0.580737
vt 0.439840 0.553878
vt 0.744126 0.814485
vt 0.604166 0.482239
vt 0.672331 0.787452
vt 0.085645 0.065345
vt 0.670954 0.491413
vt 0.683844 0.711964
vt 0.662917 0.562066
vt 0.056221 0.145884
vt 0.731678 0.707183
vt 0.622627 0.581780
vt 0.736508 0.092307
vt 0.016271 0.536299
vt 0.006598 0.482318
vt 0.939564 0.506329
vt 0.791426 0.711743
vt 0.694133 0.143704
vt 0.054401 0.402498
vt 0.869574 0.490922
vt 0.090851 0.431859
vt 0.867108 0.417288
vt 0.857058 0.070133
vt 0.012308 0.682984
vt 0.855242 0.125920
vt 0.791582 0.866218
vt 0.818683 0.137473
vt 0.786060 0.070157
vt 0.000000 0.608449
vt 0.829103 0.182611
vt 0.744126 0.821215
vt 1.000000 0.606532
vt 0.758736 0.168010
vt 0.685316 0.388716
vt 0.408067 0.318081
vt 0.291247 0.454530
vt 0.348488 0.225548
vt 0.677773 0.459778
vt 0.431026 0.176751
vt 0.834672 0.401576
vt 0.130148 0.436240
vt 0.821728 0.494375
vt 0.758928 0.488146
vt 0.747834 0.361119
vt 0.232244 0.440506
vt 0.853441 0.628842
vt 0.766456 0.640000
vt 0.554998 0.057463
vt 0.491069 0.166304
vt 0.661203 0.071636
vt 0.207942 0.000000
vt 0.579472 0.365264
vt 0.477201 0.361119
vt 0.642437 0.169965
vt 0.565426 0.199969
vt 0.608937 0.072162
vt 0.293309 0.025246
vt 0.628288 0.255903
vt 0.320949 0.673747
vt 0.619708 0.321108
vt 0.336809 0.833560
vt 0.560004 0.310321
vt 0.387737 0.801509
vt 0.556413 0.271543
vt 0.324683 0.722893
vt 0.353162 0.419686
vt 0.668575 0.311882
vt 0.278588 0.749240
vt 0.336833 0.476818
vt 0.339988 0.536299
vt 0.218381 0.752553
vt 0.143231 0.752483
vt 0.340137 0.610197
vt 0.336809 0.674909
vt 0.069266 0.722735
vt 0.116277 0.014773
vt 0.646477 0.441109
vt 0.187902 0.035191
vt 0.639569 0.392860
vt 0.582099 0.007382
vt 0.273048 0.064123
vt 0.563922 0.000091
vt 0.316518 0.068429
vt 0.429528 0.400325
vt 0.693822 0.237100
vt 0.693981 0.150197
vt 0.517650 0.412671
vt 0.586459 0.423461
s 1
f 1/1/1 3/3/2 4/4/3
f 5/5/4 7/8/5 8/10/6
f 9/12/7 11/17/8 12/18/9
f 13/19/10 7/9/5 14/21/11
f 16/24/12 18/29/13 15/22/14
f 19/31/15 21/34/16 22/35/17
f 24/38/18 26/41/19 23/37/20
f 28/44/21 30/46/22 27/43/23
f 32/49/24 34/51/25 31/48/26
f 35/53/27 37/55/28 38/58/29
f 39/60/30 41/62/31 42/63/32
f 16/26/12 45/67/33 43/64/34
f 47/70/35 49/73/36 46/68/37
f 51/77/38 53/79/39 50/76/40
f 55/82/41 57/88/42 54/80/43
f 59/92/44 61/98/45 58/91/46
f 62/100/47 64/104/48 65/105/49
f 38/59/29 67/110/50 66/107/51
f 68/112/52 70/116/53 22/35/17
f 71/117/54 73/120/55 74/121/56
f 6/7/57 76/124/58 75/123/59
f 78/126/60 18/29/13 77/125/61
f 80/131/62 82/133/63 79/127/64
f 83/135/65 85/139/66 86/141/67
f 24/38/18 4/4/3 25/39/68
f 34/51/25 24/38/18 29/45/69
f 34/51/25 2/2/70 1/1/1
f 36/54/71 8/10/6 37/55/28
f 45/67/33 36/54/71 41/62/31
f 44/65/72 5/5/4 45/67/33
f 47/69/35 12/18/9 48/72/73
f 52/78/74 9/13/7 47/70/35
f 57/89/42 10/16/75 9/13/7
f 59/93/44 14/21/11 60/97/76
f 67/108/50 59/94/44 64/103/48
f 67/109/50 8/11/6 13/19/10
f 15/22/14 70/116/53 69/114/77
f 73/120/55 15/23/14 69/115/77
f 76/124/58 16/25/12 15/23/14
f 19/31/15 70/116/53 78/126/60
f 81/132/78 19/31/15 78/126/60
f 86/140/67 20/33/79 19/30/15
f 23/36/20 21/34/16 20/32/79
f 85/139/66 23/36/20 20/32/79
f 29/45/69 23/37/20 30/46/22
f 27/42/23 85/139/66 84/137/80
f 87/142/81 27/43/23 84/136/80
f 89/148/82 27/43/23 88/145/83
f 31/48/26 29/45/69 28/44/21
f 90/149/84 28/44/21 89/148/82
f 91/152/85 31/48/26 90/149/84
f 35/52/27 11/17/8 10/15/75
f 56/87/86 35/53/27 10/14/75
f 41/62/31 35/53/27 42/63/32
f 55/83/41 42/63/32 56/87/86
f 92/153/87 39/60/30 55/83/41
f 93/155/88 40/61/89 39/60/30
f 43/64/34 41/62/31 40/61/89
f 95/160/90 40/61/89 94/158/91
f 17/27/92 43/64/34 95/160/90
f 46/68/37 91/151/85 90/150/84
f 53/79/39 90/150/84 89/147/82
f 52/78/74 46/68/37 53/79/39
f 88/146/83 53/79/39 89/147/82
f 87/143/81 50/76/40 88/146/83
f 97/164/93 50/76/40 96/161/94
f 54/81/43 52/78/74 51/77/38
f 98/165/95 51/77/38 97/164/93
f 92/154/87 54/81/43 98/165/95
f 58/91/46 3/3/2 2/2/70
f 65/106/49 2/2/70 33/50/96
f 65/105/49 59/95/44 58/90/46
f 32/49/24 65/106/49 33/50/96
f 91/152/85 62/101/47 32/49/24
f 49/75/36 63/102/97 62/100/47
f 66/107/51 64/104/48 63/102/97
f 12/18/9 63/102/97 48/72/73
f 11/17/8 66/107/51 12/18/9
f 26/40/19 22/35/17 21/34/16
f 74/122/56 26/41/19 25/39/68
f 74/121/56 69/115/77 68/111/52
f 71/118/54 25/39/68 4/4/3
f 61/98/45 4/4/3 3/3/2
f 61/99/45 72/119/98 71/117/54
f 72/119/98 76/124/58 73/120/55
f 60/97/76 75/123/59 72/119/98
f 7/9/5 75/123/59 14/21/11
f 77/125/61 17/28/92 95/159/90
f 94/157/91 77/125/61 95/159/90
f 81/132/78 77/125/61 82/133/63
f 79/128/64 94/158/91 93/155/88
f 98/165/95 93/156/88 92/154/87
f 97/164/93 79/129/64 98/165/95
f 83/135/65 81/132/78 80/131/62
f 96/162/94 80/131/62 97/163/93
f 87/144/81 83/135/65 96/162/94
f 1/1/1 2/2/70 3/3/2
f 5/5/4 6/6/57 7/8/5
f 9/12/7 10/15/75 11/17/8
f 13/19/10 8/11/6 7/9/5
f 16/24/12 17/28/92 18/29/13
f 19/31/15 20/32/79 21/34/16
f 24/38/18 25/39/68 26/41/19
f 28/44/21 29/45/69 30/46/22
f 32/49/24 33/50/96 34/51/25
f 35/53/27 36/54/71 37/55/28
f 39/60/30 40/61/89 41/62/31
f 16/26/12 44/65/72 45/67/33
f 47/70/35 48/71/73 49/73/36
f 51/77/38 52/78/74 53/79/39
f 55/82/41 56/85/86 57/88/42
f 59/92/44 60/96/76 61/98/45
f 62/100/47 63/102/97 64/104/48
f 38/59/29 37/56/28 67/110/50
f 68/112/52 69/114/77 70/116/53
f 71/117/54 72/119/98 73/120/55
f 6/7/57 44/66/72 76/124/58
f 78/126/60 70/116/53 18/29/13
f 80/131/62 81/132/78 82/133/63
f 83/135/65 84/137/80 85/139/66
f 24/38/18 1/1/1 4/4/3
f 34/51/25 1/1/1 24/38/18
f 34/51/25 33/50/96 2/2/70
f 36/54/71 5/5/4 8/10/6
f 45/67/33 5/5/4 36/54/71
f 44/65/72 6/6/57 5/5/4
f 47/69/35 9/12/7 12/18/9
f 52/78/74 57/89/42 9/13/7
f 57/89/42 56/86/86 10/16/75
f 59/93/44 13/19/10 14/21/11
f 67/108/50 13/20/10 59/94/44
f 67/109/50 37/57/28 8/11/6
f 15/22/14 18/29/13 70/116/53
f 73/120/55 76/124/58 15/23/14
f 76/124/58 44/66/72 16/25/12
f 19/31/15 22/35/17 70/116/53
f 81/132/78 86/141/67 19/31/15
f 86/140/67 85/138/66 20/33/79
f 23/36/20 26/40/19 21/34/16
f 85/139/66 30/47/22 23/36/20
f 29/45/69 24/38/18 23/37/20
f 27/42/23 30/47/22 85/139/66
f 87/142/81 88/145/83 27/43/23
f 89/148/82 28/44/21 27/43/23
f 31/48/26 34/51/25 29/45/69
f 90/149/84 31/48/26 28/44/21
f 91/152/85 32/49/24 31/48/26
f 35/52/27 38/59/29 11/17/8
f 56/87/86 42/63/32 35/53/27
f 41/62/31 36/54/71 35/53/27
f 55/83/41 39/60/30 42/63/32
f 92/153/87 93/155/88 39/60/30
f 93/155/88 94/158/91 40/61/89
f 43/64/34 45/67/33 41/62/31
f 95/160/90 43/64/34 40/61/89
f 17/27/92 16/26/12 43/64/34
f 46/68/37 49/73/36 91/151/85
f 53/79/39 46/68/37 90/150/84
f 52/78/74 47/70/35 46/68/37
f 88/146/83 50/76/40 53/79/39
f 87/143/81 96/161/94 50/76/40
f 97/164/93 51/77/38 50/76/40
f 54/81/43 57/89/42 52/78/74
f 98/165/95 54/81/43 51/77/38
f 92/154/87 55/84/41 54/81/43
f 58/91/46 61/98/45 3/3/2
f 65/106/49 58/91/46 2/2/70
f 65/105/49 64/104/48 59/95/44
f 32/49/24 62/101/47 65/106/49
f 91/152/85 49/74/36 62/101/47
f 49/75/36 48/72/73 63/102/97
f 66/107/51 67/110/50 64/104/48
f 12/18/9 66/107/51 63/102/97
f 11/17/8 38/59/29 66/107/51
f 26/40/19 68/112/52 22/35/17
f 74/122/56 68/113/52 26/41/19
f 74/121/56 73/120/55 69/115/77
f 71/118/54 74/122/56 25/39/68
f 61/98/45 71/118/54 4/4/3
f 61/99/45 60/97/76 72/119/98
f 72/119/98 75/123/59 76/124/58
f 60/97/76 14/21/11 75/123/59
f 7/9/5 6/7/57 75/123/59
f 77/125/61 18/29/13 17/28/92
f 94/157/91 82/133/63 77/125/61
f 81/132/78 78/126/60 77/125/61
f 79/128/64 82/134/63 94/158/91
f 98/165/95 79/129/64 93/156/88
f 97/164/93 80/130/62 79/129/64
f 83/135/65 86/141/67 81/132/78
f 96/162/94 83/135/65 80/131/62
f 87/144/81 84/137/80 83/135/65
